<mxfile host="app.diagrams.net" agent="Mozilla/5.0 (Windows NT 10.0; Win64; x64) AppleWebKit/537.36 (KHTML, like Gecko) Chrome/131.0.0.0 Safari/537.36" version="26.0.4">
  <diagram id="4MgxAiT06_KZMxbBPTQe" name="Page-1">
    <mxGraphModel dx="794" dy="412" grid="1" gridSize="10" guides="1" tooltips="1" connect="1" arrows="1" fold="1" page="1" pageScale="1" pageWidth="1169" pageHeight="827" math="0" shadow="0">
      <root>
        <mxCell id="0" />
        <mxCell id="1" parent="0" />
        <mxCell id="RmRmJjvTmahBdNnuwfnu-4" value="" style="edgeStyle=orthogonalEdgeStyle;rounded=0;orthogonalLoop=1;jettySize=auto;html=1;endArrow=none;endFill=0;" parent="1" source="RmRmJjvTmahBdNnuwfnu-1" target="RmRmJjvTmahBdNnuwfnu-3" edge="1">
          <mxGeometry relative="1" as="geometry">
            <Array as="points">
              <mxPoint x="585" y="140" />
            </Array>
          </mxGeometry>
        </mxCell>
        <mxCell id="RmRmJjvTmahBdNnuwfnu-6" value="" style="edgeStyle=orthogonalEdgeStyle;rounded=0;orthogonalLoop=1;jettySize=auto;html=1;endArrow=none;endFill=0;" parent="1" source="RmRmJjvTmahBdNnuwfnu-1" target="RmRmJjvTmahBdNnuwfnu-5" edge="1">
          <mxGeometry relative="1" as="geometry">
            <Array as="points">
              <mxPoint x="585" y="140" />
            </Array>
          </mxGeometry>
        </mxCell>
        <mxCell id="RmRmJjvTmahBdNnuwfnu-1" value="&lt;b&gt;UML diagrams&lt;/b&gt;" style="rounded=1;whiteSpace=wrap;html=1;fillColor=#d5e8d4;strokeColor=#82b366;" parent="1" vertex="1">
          <mxGeometry x="25" y="20" width="1120" height="60" as="geometry" />
        </mxCell>
        <mxCell id="RmRmJjvTmahBdNnuwfnu-8" value="" style="edgeStyle=orthogonalEdgeStyle;rounded=0;orthogonalLoop=1;jettySize=auto;html=1;endArrow=none;endFill=0;" parent="1" source="RmRmJjvTmahBdNnuwfnu-3" target="RmRmJjvTmahBdNnuwfnu-7" edge="1">
          <mxGeometry relative="1" as="geometry">
            <Array as="points">
              <mxPoint x="285" y="230" />
            </Array>
          </mxGeometry>
        </mxCell>
        <mxCell id="RmRmJjvTmahBdNnuwfnu-10" value="" style="edgeStyle=orthogonalEdgeStyle;rounded=0;orthogonalLoop=1;jettySize=auto;html=1;endArrow=none;endFill=0;" parent="1" source="RmRmJjvTmahBdNnuwfnu-3" target="RmRmJjvTmahBdNnuwfnu-9" edge="1">
          <mxGeometry relative="1" as="geometry">
            <Array as="points">
              <mxPoint x="285" y="230" />
            </Array>
          </mxGeometry>
        </mxCell>
        <mxCell id="RmRmJjvTmahBdNnuwfnu-12" value="" style="edgeStyle=orthogonalEdgeStyle;rounded=0;orthogonalLoop=1;jettySize=auto;html=1;endArrow=none;endFill=0;" parent="1" source="RmRmJjvTmahBdNnuwfnu-3" target="RmRmJjvTmahBdNnuwfnu-11" edge="1">
          <mxGeometry relative="1" as="geometry">
            <Array as="points">
              <mxPoint x="285" y="240" />
              <mxPoint x="285" y="240" />
            </Array>
          </mxGeometry>
        </mxCell>
        <mxCell id="RmRmJjvTmahBdNnuwfnu-15" value="" style="edgeStyle=orthogonalEdgeStyle;rounded=0;orthogonalLoop=1;jettySize=auto;html=1;endArrow=none;endFill=0;" parent="1" source="RmRmJjvTmahBdNnuwfnu-3" target="RmRmJjvTmahBdNnuwfnu-14" edge="1">
          <mxGeometry relative="1" as="geometry">
            <Array as="points">
              <mxPoint x="285" y="325" />
            </Array>
          </mxGeometry>
        </mxCell>
        <mxCell id="RmRmJjvTmahBdNnuwfnu-18" value="" style="edgeStyle=orthogonalEdgeStyle;rounded=0;orthogonalLoop=1;jettySize=auto;html=1;endArrow=none;endFill=0;" parent="1" source="RmRmJjvTmahBdNnuwfnu-3" target="RmRmJjvTmahBdNnuwfnu-17" edge="1">
          <mxGeometry relative="1" as="geometry">
            <Array as="points">
              <mxPoint x="285" y="410" />
            </Array>
          </mxGeometry>
        </mxCell>
        <mxCell id="RmRmJjvTmahBdNnuwfnu-20" value="" style="edgeStyle=orthogonalEdgeStyle;rounded=0;orthogonalLoop=1;jettySize=auto;html=1;endArrow=none;endFill=0;" parent="1" source="RmRmJjvTmahBdNnuwfnu-3" target="RmRmJjvTmahBdNnuwfnu-19" edge="1">
          <mxGeometry relative="1" as="geometry">
            <Array as="points">
              <mxPoint x="285" y="410" />
            </Array>
          </mxGeometry>
        </mxCell>
        <mxCell id="RmRmJjvTmahBdNnuwfnu-22" value="" style="edgeStyle=orthogonalEdgeStyle;rounded=0;orthogonalLoop=1;jettySize=auto;html=1;endArrow=none;endFill=0;" parent="1" source="RmRmJjvTmahBdNnuwfnu-3" target="RmRmJjvTmahBdNnuwfnu-21" edge="1">
          <mxGeometry relative="1" as="geometry">
            <Array as="points">
              <mxPoint x="285" y="500" />
            </Array>
          </mxGeometry>
        </mxCell>
        <mxCell id="RmRmJjvTmahBdNnuwfnu-3" value="&lt;b&gt;Structure diagrams&lt;/b&gt;" style="rounded=1;whiteSpace=wrap;html=1;fillColor=#dae8fc;strokeColor=#6c8ebf;" parent="1" vertex="1">
          <mxGeometry x="25" y="110" width="520" height="60" as="geometry" />
        </mxCell>
        <mxCell id="RmRmJjvTmahBdNnuwfnu-24" value="" style="edgeStyle=orthogonalEdgeStyle;rounded=0;orthogonalLoop=1;jettySize=auto;html=1;endArrow=none;endFill=0;" parent="1" source="RmRmJjvTmahBdNnuwfnu-5" target="RmRmJjvTmahBdNnuwfnu-23" edge="1">
          <mxGeometry relative="1" as="geometry">
            <Array as="points">
              <mxPoint x="885" y="230" />
            </Array>
          </mxGeometry>
        </mxCell>
        <mxCell id="RmRmJjvTmahBdNnuwfnu-26" value="" style="edgeStyle=orthogonalEdgeStyle;rounded=0;orthogonalLoop=1;jettySize=auto;html=1;endArrow=none;endFill=0;" parent="1" source="RmRmJjvTmahBdNnuwfnu-5" target="RmRmJjvTmahBdNnuwfnu-25" edge="1">
          <mxGeometry relative="1" as="geometry">
            <Array as="points">
              <mxPoint x="885" y="230" />
            </Array>
          </mxGeometry>
        </mxCell>
        <mxCell id="RmRmJjvTmahBdNnuwfnu-28" value="" style="edgeStyle=orthogonalEdgeStyle;rounded=0;orthogonalLoop=1;jettySize=auto;html=1;endArrow=none;endFill=0;" parent="1" source="RmRmJjvTmahBdNnuwfnu-5" target="RmRmJjvTmahBdNnuwfnu-27" edge="1">
          <mxGeometry relative="1" as="geometry">
            <Array as="points">
              <mxPoint x="885" y="325" />
            </Array>
          </mxGeometry>
        </mxCell>
        <mxCell id="RmRmJjvTmahBdNnuwfnu-30" style="edgeStyle=orthogonalEdgeStyle;rounded=0;orthogonalLoop=1;jettySize=auto;html=1;endArrow=none;endFill=0;" parent="1" source="RmRmJjvTmahBdNnuwfnu-5" target="RmRmJjvTmahBdNnuwfnu-29" edge="1">
          <mxGeometry relative="1" as="geometry">
            <Array as="points">
              <mxPoint x="885" y="230" />
            </Array>
          </mxGeometry>
        </mxCell>
        <mxCell id="RmRmJjvTmahBdNnuwfnu-5" value="&lt;b&gt;Behaviour diagrams&lt;/b&gt;" style="rounded=1;whiteSpace=wrap;html=1;fillColor=#ffe6cc;strokeColor=#d79b00;" parent="1" vertex="1">
          <mxGeometry x="625" y="110" width="520" height="60" as="geometry" />
        </mxCell>
        <mxCell id="RmRmJjvTmahBdNnuwfnu-7" value="&lt;div&gt;&lt;b&gt;Class diagram&lt;/b&gt;&lt;i&gt; &lt;br&gt;System classes, their attributes and&amp;nbsp; the relationships between the classes&lt;/i&gt;&lt;br&gt;&lt;/div&gt;" style="whiteSpace=wrap;html=1;rounded=1;fillColor=#dae8fc;strokeColor=#6c8ebf;" parent="1" vertex="1">
          <mxGeometry x="25" y="200" width="240" height="70" as="geometry" />
        </mxCell>
        <mxCell id="RmRmJjvTmahBdNnuwfnu-9" value="&lt;b&gt;Package diagram&lt;/b&gt;&lt;br&gt;S&lt;i&gt;ystem groupings and their dependencies&lt;/i&gt;" style="whiteSpace=wrap;html=1;rounded=1;fillColor=#dae8fc;strokeColor=#6c8ebf;" parent="1" vertex="1">
          <mxGeometry x="305" y="200" width="240" height="70" as="geometry" />
        </mxCell>
        <mxCell id="RmRmJjvTmahBdNnuwfnu-11" value="&lt;b&gt;Object diagram&lt;/b&gt;&lt;br&gt;&lt;i&gt;Partial and complete view of the structure &lt;br&gt;of a system at a specific time&lt;/i&gt;" style="whiteSpace=wrap;html=1;rounded=1;fillColor=#dae8fc;strokeColor=#6c8ebf;" parent="1" vertex="1">
          <mxGeometry x="25" y="290" width="240" height="70" as="geometry" />
        </mxCell>
        <mxCell id="RmRmJjvTmahBdNnuwfnu-14" value="&lt;div&gt;&lt;b&gt;Composite structure diagram&lt;/b&gt;&lt;/div&gt;&lt;div&gt;&lt;i&gt;Internal structure of a classifier and the collaborations this structure enables&lt;/i&gt;&lt;br&gt;&lt;/div&gt;" style="whiteSpace=wrap;html=1;rounded=1;fillColor=#dae8fc;strokeColor=#6c8ebf;" parent="1" vertex="1">
          <mxGeometry x="305" y="290" width="240" height="70" as="geometry" />
        </mxCell>
        <mxCell id="RmRmJjvTmahBdNnuwfnu-17" value="&lt;div&gt;&lt;b&gt;Profile diagram&lt;/b&gt;&lt;/div&gt;&lt;div&gt;&lt;i&gt;Metamodel to show stereotypes as classes and profiles as packages&lt;/i&gt;&lt;br&gt;&lt;/div&gt;" style="whiteSpace=wrap;html=1;rounded=1;fillColor=#dae8fc;strokeColor=#6c8ebf;" parent="1" vertex="1">
          <mxGeometry x="305" y="380" width="240" height="70" as="geometry" />
        </mxCell>
        <mxCell id="RmRmJjvTmahBdNnuwfnu-19" value="&lt;b&gt;Component diagram&lt;/b&gt;&lt;i&gt;&lt;br&gt;Components and their dependencies in a software system&lt;/i&gt;" style="whiteSpace=wrap;html=1;rounded=1;fillColor=#dae8fc;strokeColor=#6c8ebf;" parent="1" vertex="1">
          <mxGeometry x="25" y="380" width="240" height="70" as="geometry" />
        </mxCell>
        <mxCell id="RmRmJjvTmahBdNnuwfnu-21" value="&lt;b&gt;Deployment diagram&lt;/b&gt;&lt;br&gt;&lt;i&gt;Hardware in a system implementation and their deployed environment and artifacts&lt;/i&gt;" style="whiteSpace=wrap;html=1;rounded=1;fillColor=#dae8fc;strokeColor=#6c8ebf;" parent="1" vertex="1">
          <mxGeometry x="25" y="470" width="240" height="70" as="geometry" />
        </mxCell>
        <mxCell id="RmRmJjvTmahBdNnuwfnu-23" value="&lt;b&gt;Activity diagram&lt;/b&gt;&lt;br&gt;Workflows of the components in a system, both business and operational" style="whiteSpace=wrap;html=1;rounded=1;fillColor=#ffe6cc;strokeColor=#d79b00;" parent="1" vertex="1">
          <mxGeometry x="625" y="200" width="240" height="70" as="geometry" />
        </mxCell>
        <mxCell id="RmRmJjvTmahBdNnuwfnu-25" value="&lt;div&gt;&lt;b&gt;Use case diagram&lt;/b&gt;&lt;/div&gt;&lt;div&gt;&lt;i&gt;System functionality showing actors, goals and dependencies&lt;/i&gt;&lt;br&gt;&lt;/div&gt;" style="whiteSpace=wrap;html=1;rounded=1;fillColor=#ffe6cc;strokeColor=#d79b00;" parent="1" vertex="1">
          <mxGeometry x="905" y="200" width="240" height="70" as="geometry" />
        </mxCell>
        <mxCell id="RmRmJjvTmahBdNnuwfnu-27" value="&lt;b&gt;State machine diagram&lt;/b&gt;&lt;br&gt;&lt;i&gt;System states and their transitions&lt;/i&gt;" style="whiteSpace=wrap;html=1;rounded=1;fillColor=#ffe6cc;strokeColor=#d79b00;" parent="1" vertex="1">
          <mxGeometry x="905" y="290" width="240" height="70" as="geometry" />
        </mxCell>
        <mxCell id="RmRmJjvTmahBdNnuwfnu-32" value="" style="edgeStyle=orthogonalEdgeStyle;rounded=0;orthogonalLoop=1;jettySize=auto;html=1;endArrow=none;endFill=0;" parent="1" source="RmRmJjvTmahBdNnuwfnu-29" target="RmRmJjvTmahBdNnuwfnu-31" edge="1">
          <mxGeometry relative="1" as="geometry">
            <Array as="points">
              <mxPoint x="885" y="515" />
            </Array>
          </mxGeometry>
        </mxCell>
        <mxCell id="RmRmJjvTmahBdNnuwfnu-34" value="" style="edgeStyle=orthogonalEdgeStyle;rounded=0;orthogonalLoop=1;jettySize=auto;html=1;endArrow=none;endFill=0;" parent="1" source="RmRmJjvTmahBdNnuwfnu-29" target="RmRmJjvTmahBdNnuwfnu-33" edge="1">
          <mxGeometry relative="1" as="geometry">
            <Array as="points">
              <mxPoint x="885" y="515" />
            </Array>
          </mxGeometry>
        </mxCell>
        <mxCell id="RmRmJjvTmahBdNnuwfnu-37" value="" style="edgeStyle=orthogonalEdgeStyle;rounded=0;orthogonalLoop=1;jettySize=auto;html=1;endArrow=none;endFill=0;" parent="1" source="RmRmJjvTmahBdNnuwfnu-29" target="RmRmJjvTmahBdNnuwfnu-36" edge="1">
          <mxGeometry relative="1" as="geometry">
            <Array as="points">
              <mxPoint x="885" y="605" />
            </Array>
          </mxGeometry>
        </mxCell>
        <mxCell id="RmRmJjvTmahBdNnuwfnu-39" value="" style="edgeStyle=orthogonalEdgeStyle;rounded=0;orthogonalLoop=1;jettySize=auto;html=1;endArrow=none;endFill=0;" parent="1" source="RmRmJjvTmahBdNnuwfnu-29" target="RmRmJjvTmahBdNnuwfnu-38" edge="1">
          <mxGeometry relative="1" as="geometry">
            <Array as="points">
              <mxPoint x="885" y="605" />
            </Array>
          </mxGeometry>
        </mxCell>
        <mxCell id="RmRmJjvTmahBdNnuwfnu-29" value="&lt;b&gt;Interaction diagrams&lt;/b&gt;" style="rounded=1;whiteSpace=wrap;html=1;fillColor=#fff2cc;strokeColor=#d6b656;" parent="1" vertex="1">
          <mxGeometry x="645" y="390" width="480" height="60" as="geometry" />
        </mxCell>
        <mxCell id="RmRmJjvTmahBdNnuwfnu-31" value="&lt;div&gt;&lt;b&gt;Sequence diagram&lt;/b&gt;&lt;/div&gt;&lt;div&gt;&lt;i&gt;Object communication and lifespans represented by the messages passed between them&lt;/i&gt;&lt;br&gt;&lt;/div&gt;" style="whiteSpace=wrap;html=1;rounded=1;fillColor=#fff2cc;strokeColor=#d6b656;" parent="1" vertex="1">
          <mxGeometry x="645" y="480" width="210" height="70" as="geometry" />
        </mxCell>
        <mxCell id="RmRmJjvTmahBdNnuwfnu-33" value="&lt;b&gt;Communication diagram&lt;/b&gt;&lt;br&gt;&lt;i&gt;Object interaction represented by sequenced messages&lt;/i&gt;" style="whiteSpace=wrap;html=1;rounded=1;strokeColor=#d6b656;fillColor=#fff2cc;" parent="1" vertex="1">
          <mxGeometry x="915" y="480" width="210" height="70" as="geometry" />
        </mxCell>
        <mxCell id="RmRmJjvTmahBdNnuwfnu-36" value="&lt;div&gt;&lt;b&gt;Timing diagram&lt;/b&gt;&lt;/div&gt;&lt;div&gt;&lt;i&gt;Timing constraints within a system&lt;/i&gt;&lt;br&gt;&lt;/div&gt;" style="whiteSpace=wrap;html=1;rounded=1;strokeColor=#d6b656;fillColor=#fff2cc;" parent="1" vertex="1">
          <mxGeometry x="645" y="570" width="210" height="70" as="geometry" />
        </mxCell>
        <mxCell id="RmRmJjvTmahBdNnuwfnu-38" value="&lt;b&gt;Interaction overview diagram&lt;/b&gt;&lt;br&gt;&lt;i&gt;System overview where each node is a communication diagram&lt;/i&gt;" style="whiteSpace=wrap;html=1;rounded=1;strokeColor=#d6b656;fillColor=#fff2cc;" parent="1" vertex="1">
          <mxGeometry x="915" y="570" width="210" height="70" as="geometry" />
        </mxCell>
      </root>
    </mxGraphModel>
  </diagram>
</mxfile>
